<svg width="24" height="25" viewBox="0 0 24 25" fill="white" xmlns="http://www.w3.org/2000/svg">
<path d="M18.6064 17.5784L24.0002 22.8774L22.6518 24.2022L17.258 18.9031L18.6064 17.5784Z" />
<path fill-rule="evenodd" clip-rule="evenodd" d="M10.9652 19.7474C15.95 19.7474 19.9303 15.7865 19.9303 10.9748C19.9303 6.16304 15.95 2.20215 10.9652 2.20215C5.98029 2.20215 2 6.16304 2 10.9748C2 15.7865 5.98029 19.7474 10.9652 19.7474ZM10.9652 21.7474C17.021 21.7474 21.9303 16.9243 21.9303 10.9748C21.9303 5.02521 17.021 0.202148 10.9652 0.202148C4.90927 0.202148 0 5.02521 0 10.9748C0 16.9243 4.90927 21.7474 10.9652 21.7474Z" />
</svg>
